# Blender 3.3.1
# www.blender.org
mtllib rail_profile.mtl
o Plane
v 0.000000 0.063920 0.792347
v -0.000000 -0.070250 0.792347
v 0.000000 0.095973 0.000000
v 0.000000 0.095973 0.676345
v -0.000000 -0.070250 0.000000
v 0.000000 0.063920 0.000000
v 0.000000 0.141763 0.000000
v 0.000000 0.141763 0.121651
v 0.000000 0.866775 0.000000
v 0.000000 0.866775 0.119514
v 0.000000 0.919892 0.000000
v 0.000000 0.919892 0.170799
v 0.000000 0.996819 0.000000
v 0.000000 0.996819 0.419898
v 0.000000 1.022462 0.000000
v 0.000000 1.022462 0.458362
v 0.000000 1.222462 0.000000
v 0.000000 1.222462 0.458362
v 0.000000 1.249936 0.000000
v 0.000000 1.249936 0.414403
v 0.000000 1.264589 0.000000
v 0.000000 1.264589 0.331981
v 0.000000 0.063920 -0.792347
v -0.000000 -0.070250 -0.792347
v 0.000000 0.095973 -0.676345
v 0.000000 0.141763 -0.121651
v 0.000000 0.866775 -0.119514
v 0.000000 0.919892 -0.170799
v 0.000000 0.996819 -0.419898
v 0.000000 1.022462 -0.458362
v 0.000000 1.222462 -0.458362
v 0.000000 1.249936 -0.414403
v 0.000000 1.264589 -0.331981
vn 1.0000 -0.0000 -0.0000
vt 0.000000 0.000000
vt 1.000000 0.000000
vt 0.000000 0.501899
vt 0.000000 0.000000
vt 1.000000 0.501899
vt 0.000000 0.501899
vt 0.000000 0.501899
vt 0.000000 0.000000
vt 0.000000 0.501899
vt 0.000000 0.000000
vt 0.000000 0.501899
vt 0.000000 0.000000
vt 0.000000 0.501899
vt 0.000000 0.000000
vt 0.000000 0.501899
vt 0.000000 0.000000
vt 0.000000 0.501899
vt 0.000000 0.000000
vt 0.000000 0.501899
vt 0.000000 0.000000
vt 0.000000 0.501899
vt 0.000000 0.000000
vt 0.000000 0.000000
vt 1.000000 0.000000
vt 0.000000 0.000000
vt 0.000000 0.000000
vt 0.000000 0.000000
vt 0.000000 0.000000
vt 0.000000 0.000000
vt 0.000000 0.000000
vt 0.000000 0.000000
vt 0.000000 0.000000
vt 0.000000 0.000000
s 0
f 1/1/1 2/2/1 5/5/1 6/6/1
f 4/4/1 3/3/1 7/7/1 8/8/1
f 1/1/1 6/6/1 3/3/1 4/4/1
f 8/8/1 7/7/1 9/9/1 10/10/1
f 10/10/1 9/9/1 11/11/1 12/12/1
f 12/12/1 11/11/1 13/13/1 14/14/1
f 14/14/1 13/13/1 15/15/1 16/16/1
f 16/16/1 15/15/1 17/17/1 18/18/1
f 18/18/1 17/17/1 19/19/1 20/20/1
f 20/20/1 19/19/1 21/21/1 22/22/1
f 23/23/1 6/6/1 5/5/1 24/24/1
f 25/25/1 26/26/1 7/7/1 3/3/1
f 23/23/1 25/25/1 3/3/1 6/6/1
f 26/26/1 27/27/1 9/9/1 7/7/1
f 27/27/1 28/28/1 11/11/1 9/9/1
f 28/28/1 29/29/1 13/13/1 11/11/1
f 29/29/1 30/30/1 15/15/1 13/13/1
f 30/30/1 31/31/1 17/17/1 15/15/1
f 31/31/1 32/32/1 19/19/1 17/17/1
f 32/32/1 33/33/1 21/21/1 19/19/1
