# Blender 3.3.1
# www.blender.org
mtllib track-extruded.mtl
o 34re5brtfgv_h
v 0.000000 0.063920 0.792347
v -0.000000 -0.070250 0.792347
v 0.000000 0.095973 0.676345
v -0.000000 -0.070250 0.000000
v 0.000000 0.141763 0.121651
v 0.000000 0.866775 0.119514
v 0.000000 0.919892 0.170799
v 0.000000 0.996819 0.419898
v 0.000000 1.022462 0.458362
v 0.000000 1.222462 0.458362
v 0.000000 1.249936 0.414403
v 0.000000 1.264590 0.000000
v 0.000000 1.264589 0.331981
v 0.000000 0.063920 -0.792347
v -0.000000 -0.070250 -0.792347
v 0.000000 0.095973 -0.676345
v 0.000000 0.141763 -0.121651
v 0.000000 0.866775 -0.119514
v 0.000000 0.919892 -0.170799
v 0.000000 0.996819 -0.419898
v 0.000000 1.022460 -0.458362
v 0.000000 1.222460 -0.458362
v 0.000000 1.249940 -0.414403
v 0.000000 1.264590 -0.331981
v 0.000000 -0.003165 0.792347
v 0.000000 0.079947 0.734346
v -0.000000 -0.070250 0.396174
v 0.000000 0.118868 0.398998
v 0.000000 0.504269 0.120583
v 0.000000 0.893333 0.145157
v 0.000000 0.958355 0.295349
v 0.000000 1.009640 0.439130
v 0.000000 1.122462 0.458362
v 0.000000 1.236199 0.436383
v 0.000000 1.264589 0.165990
v 0.000000 1.257262 0.373192
v 0.000000 -0.003165 -0.792347
v 0.000000 0.079947 -0.734346
v -0.000000 -0.070250 -0.396174
v 0.000000 0.118868 -0.398998
v 0.000000 0.504269 -0.120583
v 0.000000 0.893333 -0.145157
v 0.000000 0.958356 -0.295348
v 0.000000 1.009640 -0.439130
v 0.000000 1.122460 -0.458362
v 0.000000 1.236200 -0.436382
v 0.000000 1.264590 -0.165991
v 0.000000 1.257265 -0.373192
v -0.500107 0.063920 0.792347
v -0.500107 -0.070250 0.792347
v -0.500107 0.095973 0.676345
v -0.500107 -0.070250 0.000000
v -0.500107 0.141764 0.121651
v -0.500107 0.866775 0.119514
v -0.500107 0.919892 0.170799
v -0.500107 0.996819 0.419898
v -0.500107 1.022462 0.458362
v -0.500107 1.222462 0.458362
v -0.500107 1.249936 0.414403
v -0.500107 1.264590 0.000000
v -0.500107 1.264589 0.331981
v -0.500107 0.063920 -0.792347
v -0.500107 -0.070250 -0.792347
v -0.500107 0.095973 -0.676345
v -0.500107 0.141763 -0.121651
v -0.500107 0.866775 -0.119514
v -0.500107 0.919892 -0.170799
v -0.500107 0.996819 -0.419898
v -0.500107 1.022460 -0.458362
v -0.500107 1.222460 -0.458362
v -0.500107 1.249940 -0.414403
v -0.500107 1.264590 -0.331981
v -0.500107 -0.003165 0.792347
v -0.500107 0.079947 0.734346
v -0.500107 -0.070250 0.396174
v -0.500107 0.118869 0.398998
v -0.500107 0.504269 0.120583
v -0.500107 0.893333 0.145157
v -0.500107 0.958355 0.295349
v -0.500107 1.009641 0.439130
v -0.500107 1.122462 0.458362
v -0.500107 1.236199 0.436383
v -0.500107 1.264590 0.165990
v -0.500107 1.257262 0.373192
v -0.500107 -0.003165 -0.792347
v -0.500107 0.079947 -0.734346
v -0.500107 -0.070250 -0.396174
v -0.500107 0.118868 -0.398998
v -0.500107 0.504269 -0.120583
v -0.500107 0.893334 -0.145157
v -0.500107 0.958356 -0.295348
v -0.500107 1.009640 -0.439130
v -0.500107 1.122460 -0.458362
v -0.500107 1.236200 -0.436382
v -0.500107 1.264590 -0.165991
v -0.500107 1.257265 -0.373192
v 0.000000 -0.003165 0.792347
v -0.000000 -0.070250 0.792347
v -0.000000 -0.070250 0.792347
v 0.000000 0.079947 0.734346
v 0.000000 0.063920 0.792347
v 0.000000 0.063920 0.792347
v -0.000000 -0.070250 0.396174
v -0.000000 -0.070250 0.000000
v 0.000000 0.118868 0.398998
v 0.000000 0.095973 0.676345
v 0.000000 0.504269 0.120583
v 0.000000 0.141763 0.121651
v 0.000000 0.141763 0.121651
v 0.000000 0.893333 0.145157
v 0.000000 0.866775 0.119514
v 0.000000 0.958355 0.295349
v 0.000000 0.919892 0.170799
v 0.000000 1.009640 0.439130
v 0.000000 0.996819 0.419898
v 0.000000 1.122462 0.458362
v 0.000000 1.022462 0.458362
v 0.000000 1.236199 0.436383
v 0.000000 1.222462 0.458362
v 0.000000 1.264589 0.165990
v 0.000000 1.264589 0.331981
v 0.000000 1.257262 0.373192
v 0.000000 1.249936 0.414403
v 0.000000 -0.003165 -0.792347
v -0.000000 -0.070250 -0.792347
v -0.000000 -0.070250 -0.792347
v 0.000000 0.079947 -0.734346
v 0.000000 0.063920 -0.792347
v 0.000000 0.063920 -0.792347
v -0.000000 -0.070250 -0.396174
v 0.000000 0.118868 -0.398998
v 0.000000 0.095973 -0.676345
v 0.000000 0.504269 -0.120583
v 0.000000 0.141763 -0.121651
v 0.000000 0.141763 -0.121651
v 0.000000 0.893333 -0.145157
v 0.000000 0.866775 -0.119514
v 0.000000 0.958356 -0.295348
v 0.000000 0.919892 -0.170799
v 0.000000 1.009640 -0.439130
v 0.000000 0.996819 -0.419898
v 0.000000 1.122460 -0.458362
v 0.000000 1.022460 -0.458362
v 0.000000 1.236200 -0.436382
v 0.000000 1.222460 -0.458362
v 0.000000 1.264590 -0.165991
v 0.000000 1.264590 -0.331981
v 0.000000 1.257265 -0.373192
v 0.000000 1.249940 -0.414403
v 0.000000 1.264590 0.000000
v -0.500107 -0.003165 0.792347
v -0.500107 -0.070250 0.792347
v -0.500107 -0.070250 0.792347
v -0.500107 0.079947 0.734346
v -0.500107 0.063920 0.792347
v -0.500107 0.063920 0.792347
v -0.500107 -0.070250 0.396174
v -0.500107 -0.070250 0.000000
v -0.500107 0.118869 0.398998
v -0.500107 0.095973 0.676345
v -0.500107 0.504269 0.120583
v -0.500107 0.141764 0.121651
v -0.500107 0.141764 0.121651
v -0.500107 0.893333 0.145157
v -0.500107 0.866775 0.119514
v -0.500107 0.958355 0.295349
v -0.500107 0.919892 0.170799
v -0.500107 1.009641 0.439130
v -0.500107 0.996819 0.419898
v -0.500107 1.122462 0.458362
v -0.500107 1.022462 0.458362
v -0.500107 1.236199 0.436383
v -0.500107 1.222462 0.458362
v -0.500107 1.264590 0.165990
v -0.500107 1.264589 0.331981
v -0.500107 1.257262 0.373192
v -0.500107 1.249936 0.414403
v -0.500107 -0.003165 -0.792347
v -0.500107 -0.070250 -0.792347
v -0.500107 -0.070250 -0.792347
v -0.500107 0.079947 -0.734346
v -0.500107 0.063920 -0.792347
v -0.500107 0.063920 -0.792347
v -0.500107 -0.070250 -0.396174
v -0.500107 0.118868 -0.398998
v -0.500107 0.095973 -0.676345
v -0.500107 0.504269 -0.120583
v -0.500107 0.141763 -0.121651
v -0.500107 0.141763 -0.121651
v -0.500107 0.893334 -0.145157
v -0.500107 0.866775 -0.119514
v -0.500107 0.958356 -0.295348
v -0.500107 0.919892 -0.170799
v -0.500107 1.009640 -0.439130
v -0.500107 0.996819 -0.419898
v -0.500107 1.122460 -0.458362
v -0.500107 1.022460 -0.458362
v -0.500107 1.236200 -0.436382
v -0.500107 1.222460 -0.458362
v -0.500107 1.264590 -0.165991
v -0.500107 1.264590 -0.331981
v -0.500107 1.257265 -0.373192
v -0.500107 1.249940 -0.414403
v -0.500107 1.264590 0.000000
vn 1.0000 -0.0000 -0.0000
vn -1.0000 -0.0000 -0.0000
vn -0.0000 -0.0000 -1.0000
vn -0.0000 0.9966 -0.0823
vn -0.0000 -1.0000 -0.0000
vn -0.0000 0.9639 -0.2663
vn -0.0000 0.0029 -1.0000
vn -0.0000 -0.0000 1.0000
vn -0.0000 0.9966 0.0823
vn -0.0000 -0.6946 -0.7194
vn -0.0000 -0.8519 -0.5237
vn -0.0000 0.9639 0.2663
vn -0.0000 0.0029 1.0000
vn -0.0000 0.9846 -0.1751
vn -0.0000 -0.9555 -0.2951
vn -0.0000 -0.9031 -0.4293
vn -0.0000 -0.8519 0.5237
vn -0.0000 -0.6946 0.7194
vn -0.0000 -0.8321 -0.5547
vn -0.0000 0.9846 0.1751
vn -0.0000 -0.9031 0.4293
vn -0.0000 -0.9555 0.2951
vn -0.0000 -0.8320 0.5547
vn -0.0000 -0.8321 0.5547
vn -0.0000 0.8479 -0.5301
vn -0.0000 0.9333 -0.3591
vn -0.0000 1.0000 -0.0000
vn -0.0000 0.9333 0.3591
vn -0.0000 0.8480 0.5300
vn -0.0000 0.9846 -0.1750
vn -0.0000 0.9961 -0.0878
vn -0.0000 0.9961 0.0879
vn -0.0000 0.9846 0.1750
vt 0.000000 0.000000
vt 0.000000 0.000000
vt 0.000000 0.000000
vt 0.000000 0.000000
vt 0.000000 0.000000
vt 0.000000 0.000000
vt 0.000000 0.000000
vt 0.000000 0.000000
vt 0.000000 0.000000
vt 0.000000 0.000000
vt 0.000000 0.000000
vt 0.000000 0.000000
vt 0.000000 0.000000
vt 0.000000 0.000000
vt 0.000000 0.000000
vt 0.000000 0.000000
vt 0.000000 0.000000
vt 0.000000 0.000000
vt 0.000000 0.000000
vt 0.000000 0.000000
vt 0.000000 0.000000
vt 0.000000 0.000000
vt 0.000000 0.000000
vt 0.000000 0.000000
vt 0.000000 0.000000
vt 0.000000 0.000000
vt 0.000000 0.000000
vt 0.000000 0.000000
vt 0.000000 0.000000
vt 0.000000 0.000000
vt 0.000000 0.000000
vt 0.000000 0.000000
vt 0.000000 0.000000
vt 0.000000 0.000000
vt 0.000000 0.000000
vt 0.000000 0.000000
vt 0.000000 0.000000
vt 0.000000 0.000000
vt 0.000000 0.000000
vt 0.000000 0.000000
vt 0.000000 0.000000
vt 0.000000 0.000000
vt 0.000000 0.000000
vt 0.000000 0.000000
vt 0.000000 0.000000
vt 0.000000 0.000000
vt 0.000000 0.000000
vt 0.000000 0.000000
vt 0.000000 0.000000
vt 0.000000 0.000000
vt 0.000000 0.000000
vt 0.000000 0.000000
vt 0.000000 0.000000
vt 0.000000 0.000000
vt 0.000000 0.000000
vt 0.000000 0.000000
vt 0.000000 0.000000
vt 0.000000 0.000000
vt 0.000000 0.000000
vt 0.000000 0.000000
vt 0.000000 0.000000
vt 0.000000 0.000000
vt 0.000000 0.000000
vt 0.000000 0.000000
vt 0.000000 0.000000
vt 0.000000 0.000000
vt 0.000000 0.000000
vt 0.000000 0.000000
vt 0.000000 0.000000
vt 0.000000 0.000000
vt 0.000000 0.000000
vt 0.000000 0.000000
vt 0.000000 0.000000
vt 0.000000 0.000000
vt 0.000000 0.000000
vt 0.000000 0.000000
vt 0.000000 0.000000
vt 0.000000 0.000000
vt 0.000000 0.000000
vt 0.000000 0.000000
vt 0.000000 0.000000
vt 0.000000 0.000000
vt 0.000000 0.000000
vt 0.000000 0.000000
vt 0.000000 0.000000
vt 0.000000 0.000000
vt 0.000000 0.000000
vt 0.000000 0.000000
vt 0.000000 0.000000
vt 0.000000 0.000000
vt 0.000000 0.000000
vt 0.000000 0.000000
vt 0.000000 0.000000
vt 0.000000 0.000000
vt 0.000000 0.000000
vt 0.000000 0.000000
vt 0.000000 0.000000
vt 0.000000 0.000000
vt 0.000000 0.000000
vt 0.000000 0.000000
vt 0.000000 0.000000
vt 0.000000 0.000000
vt 0.000000 0.000000
vt 0.000000 0.000000
vt 0.000000 0.000000
vt 0.000000 0.000000
vt 0.000000 0.000000
vt 0.000000 0.000000
vt 0.000000 0.000000
vt 0.000000 0.000000
vt 0.000000 0.000000
vt 0.000000 0.000000
vt 0.000000 0.000000
vt 0.000000 0.000000
vt 0.000000 0.000000
vt 0.000000 0.000000
vt 0.000000 0.000000
vt 0.000000 0.000000
vt 0.000000 0.000000
vt 0.000000 0.000000
vt 0.000000 0.000000
vt 0.000000 0.000000
vt 0.000000 0.000000
vt 0.000000 0.000000
vt 0.000000 0.000000
vt 0.000000 0.000000
vt 0.000000 0.000000
vt 0.000000 0.000000
vt 0.000000 0.000000
vt 0.000000 0.000000
vt 0.000000 0.000000
vt 0.000000 0.000000
vt 0.000000 0.000000
vt 0.000000 0.000000
vt 0.000000 0.000000
vt 0.000000 0.000000
vt 0.000000 0.000000
vt 0.000000 0.000000
vt 0.000000 0.000000
vt 0.000000 0.000000
vt 0.000000 0.000000
vt 0.000000 0.000000
vt 0.000000 0.000000
vt 0.000000 0.000000
vt 0.000000 0.000000
vt 0.000000 0.000000
vt 0.000000 0.000000
vt 0.000000 0.000000
vt 0.000000 0.000000
vt 0.000000 0.000000
vt 0.000000 0.000000
vt 0.000000 0.000000
vt 0.000000 0.000000
vt 0.000000 0.000000
vt 0.000000 0.000000
vt 0.000000 0.000000
vt 0.000000 0.000000
vt 0.000000 0.000000
vt 0.000000 0.000000
vt 0.000000 0.000000
vt 0.000000 0.000000
vt 0.000000 0.000000
vt 0.000000 0.000000
vt 0.000000 0.000000
vt 0.000000 0.000000
vt 0.000000 0.000000
vt 0.000000 0.000000
vt 0.000000 0.000000
vt 0.000000 0.000000
vt 0.000000 0.000000
vt 0.000000 0.000000
vt 0.000000 0.000000
vt 0.000000 0.000000
vt 0.000000 0.000000
vt 0.000000 0.000000
vt 0.000000 0.000000
vt 0.000000 0.000000
vt 0.000000 0.000000
vt 0.000000 0.000000
vt 0.000000 0.000000
vt 0.000000 0.000000
vt 0.000000 0.000000
vt 0.000000 0.000000
vt 0.000000 0.000000
vt 0.000000 0.000000
vt 0.000000 0.000000
vt 0.000000 0.000000
vt 0.000000 0.000000
vt 0.000000 0.000000
vt 0.000000 0.000000
vt 0.000000 0.000000
vt 0.000000 0.000000
vt 0.000000 0.000000
vt 0.000000 0.000000
vt 0.000000 0.000000
vt 0.000000 0.000000
vt 0.000000 0.000000
vt 0.000000 0.000000
vt 0.000000 0.000000
vt 0.000000 0.000000
vt 0.000000 0.000000
vt 0.000000 0.000000
vt 0.000000 0.000000
vt 0.000000 0.000000
s 1
f 147/147/1 138/138/1 142/142/1
f 175/175/2 166/166/2 170/170/2
f 180/180/3 37/37/3 126/126/3
f 88/88/4 135/135/4 40/40/4
f 153/153/5 27/27/5 99/99/5
f 183/183/6 38/38/6 129/129/6
f 89/89/7 18/18/7 41/41/7
f 25/25/8 50/50/8 2/2/8
f 109/109/9 76/76/9 28/28/9
f 52/52/5 39/39/5 4/4/5
f 90/90/10 19/19/11 42/42/10
f 74/74/12 102/102/12 26/26/12
f 6/6/13 77/77/13 29/29/13
f 64/64/14 40/40/4 16/16/14
f 91/91/15 20/20/16 43/43/15
f 75/75/5 4/4/5 27/27/5
f 7/7/17 78/78/18 30/30/18
f 65/65/7 41/41/7 17/17/7
f 92/92/19 21/21/19 44/44/19
f 28/28/9 51/51/20 3/3/20
f 56/56/21 31/31/22 8/8/21
f 66/66/10 42/42/10 18/18/10
f 93/93/3 22/22/3 45/45/3
f 29/29/13 53/53/13 5/5/13
f 9/9/23 80/80/24 32/32/23
f 67/67/11 43/43/15 19/19/11
f 94/94/25 23/23/26 46/46/25
f 78/78/18 6/6/18 30/30/18
f 10/10/8 81/81/8 33/33/8
f 68/68/16 44/44/19 20/20/16
f 95/95/27 12/12/27 47/47/27
f 79/79/22 7/7/17 31/31/22
f 59/59/28 34/34/29 11/11/28
f 69/69/3 45/45/3 21/21/3
f 96/96/30 24/24/31 48/48/30
f 32/32/23 56/56/21 8/8/21
f 60/60/27 35/35/27 12/12/27
f 70/70/25 46/46/25 22/22/25
f 33/33/8 57/57/8 9/9/8
f 13/13/32 84/84/33 36/36/33
f 72/72/31 47/47/27 24/24/31
f 82/82/29 10/10/29 34/34/29
f 85/85/3 14/14/3 37/37/3
f 71/71/26 48/48/30 23/23/26
f 83/83/27 13/13/32 35/35/27
f 86/86/6 16/16/14 38/38/6
f 1/1/8 73/73/8 25/25/8
f 84/84/33 11/11/28 36/36/33
f 87/87/5 15/15/5 39/39/5
f 51/51/20 26/26/12 3/3/20
f 101/101/1 97/97/1 100/100/1
f 97/97/1 98/98/1 106/106/1
f 106/106/1 98/98/1 103/103/1
f 103/103/1 104/104/1 108/108/1
f 104/104/1 130/130/1 134/134/1
f 100/100/1 97/97/1 106/106/1
f 105/105/1 106/106/1 103/103/1
f 104/104/1 134/134/1 108/108/1
f 130/130/1 125/125/1 132/132/1
f 132/132/1 125/125/1 124/124/1
f 124/124/1 128/128/1 127/127/1
f 132/132/1 124/124/1 127/127/1
f 108/108/1 105/105/1 103/103/1
f 134/134/1 130/130/1 131/131/1
f 132/132/1 131/131/1 130/130/1
f 134/134/1 133/133/1 108/108/1
f 133/133/1 137/137/1 107/107/1
f 108/108/1 133/133/1 107/107/1
f 137/137/1 136/136/1 110/110/1
f 136/136/1 139/139/1 150/150/1
f 110/110/1 136/136/1 150/150/1
f 111/111/1 107/107/1 137/137/1
f 110/110/1 111/111/1 137/137/1
f 115/115/1 112/112/1 116/116/1
f 112/112/1 113/113/1 120/120/1
f 115/115/1 116/116/1 114/114/1
f 113/113/1 110/110/1 150/150/1
f 138/138/1 141/141/1 142/142/1
f 141/141/1 140/140/1 142/142/1
f 139/139/1 138/138/1 146/146/1
f 116/116/1 112/112/1 121/121/1
f 116/116/1 117/117/1 114/114/1
f 118/118/1 119/119/1 116/116/1
f 122/122/1 123/123/1 118/118/1
f 120/120/1 121/121/1 112/112/1
f 121/121/1 122/122/1 116/116/1
f 146/146/1 150/150/1 139/139/1
f 150/150/1 120/120/1 113/113/1
f 148/148/1 147/147/1 142/142/1
f 147/147/1 146/146/1 138/138/1
f 144/144/1 149/149/1 148/148/1
f 142/142/1 145/145/1 144/144/1
f 140/140/1 143/143/1 142/142/1
f 122/122/1 118/118/1 116/116/1
f 144/144/1 148/148/1 142/142/1
f 152/152/2 151/151/2 160/160/2
f 151/151/2 155/155/2 154/154/2
f 154/154/2 160/160/2 151/151/2
f 160/160/2 159/159/2 157/157/2
f 184/184/2 158/158/2 188/188/2
f 158/158/2 157/157/2 162/162/2
f 157/157/2 152/152/2 160/160/2
f 159/159/2 162/162/2 157/157/2
f 179/179/2 184/184/2 186/186/2
f 158/158/2 162/162/2 188/188/2
f 179/179/2 186/186/2 178/178/2
f 181/181/2 182/182/2 178/178/2
f 186/186/2 181/181/2 178/178/2
f 188/188/2 185/185/2 184/184/2
f 185/185/2 186/186/2 184/184/2
f 191/191/2 187/187/2 161/161/2
f 187/187/2 188/188/2 161/161/2
f 193/193/2 190/190/2 204/204/2
f 190/190/2 191/191/2 165/165/2
f 188/188/2 162/162/2 161/161/2
f 191/191/2 161/161/2 165/165/2
f 190/190/2 165/165/2 164/164/2
f 190/190/2 164/164/2 204/204/2
f 194/194/2 195/195/2 196/196/2
f 195/195/2 192/192/2 196/196/2
f 192/192/2 193/193/2 200/200/2
f 204/204/2 164/164/2 167/167/2
f 197/197/2 194/194/2 196/196/2
f 198/198/2 199/199/2 196/196/2
f 193/193/2 204/204/2 200/200/2
f 167/167/2 166/166/2 174/174/2
f 166/166/2 169/169/2 170/170/2
f 169/169/2 168/168/2 170/170/2
f 168/168/2 171/171/2 170/170/2
f 170/170/2 173/173/2 172/172/2
f 172/172/2 177/177/2 176/176/2
f 176/176/2 175/175/2 170/170/2
f 175/175/2 174/174/2 166/166/2
f 174/174/2 204/204/2 167/167/2
f 200/200/2 201/201/2 192/192/2
f 201/201/2 202/202/2 196/196/2
f 192/192/2 201/201/2 196/196/2
f 202/202/2 203/203/2 198/198/2
f 198/198/2 196/196/2 202/202/2
f 170/170/2 172/172/2 176/176/2
f 180/180/3 85/85/3 37/37/3
f 88/88/4 189/189/4 135/135/4
f 153/153/5 75/75/5 27/27/5
f 183/183/6 86/86/6 38/38/6
f 89/89/7 66/66/7 18/18/7
f 25/25/8 73/73/8 50/50/8
f 109/109/9 163/163/9 76/76/9
f 52/52/5 87/87/5 39/39/5
f 90/90/10 67/67/11 19/19/11
f 74/74/12 156/156/12 102/102/12
f 6/6/13 54/54/13 77/77/13
f 64/64/14 88/88/4 40/40/4
f 91/91/15 68/68/16 20/20/16
f 75/75/5 52/52/5 4/4/5
f 7/7/17 55/55/17 78/78/18
f 65/65/7 89/89/7 41/41/7
f 92/92/19 69/69/19 21/21/19
f 28/28/9 76/76/9 51/51/20
f 56/56/21 79/79/22 31/31/22
f 66/66/10 90/90/10 42/42/10
f 93/93/3 70/70/3 22/22/3
f 29/29/13 77/77/13 53/53/13
f 9/9/23 57/57/24 80/80/24
f 67/67/11 91/91/15 43/43/15
f 94/94/25 71/71/26 23/23/26
f 78/78/18 54/54/18 6/6/18
f 10/10/8 58/58/8 81/81/8
f 68/68/16 92/92/19 44/44/19
f 95/95/27 60/60/27 12/12/27
f 79/79/22 55/55/17 7/7/17
f 59/59/28 82/82/29 34/34/29
f 69/69/3 93/93/3 45/45/3
f 96/96/30 72/72/31 24/24/31
f 32/32/23 80/80/24 56/56/21
f 60/60/27 83/83/27 35/35/27
f 70/70/25 94/94/25 46/46/25
f 33/33/8 81/81/8 57/57/8
f 13/13/32 61/61/32 84/84/33
f 72/72/31 95/95/27 47/47/27
f 82/82/29 58/58/29 10/10/29
f 85/85/3 62/62/3 14/14/3
f 71/71/26 96/96/30 48/48/30
f 83/83/27 61/61/32 13/13/32
f 86/86/6 64/64/14 16/16/14
f 1/1/8 49/49/8 73/73/8
f 84/84/33 59/59/28 11/11/28
f 87/87/5 63/63/5 15/15/5
f 51/51/20 74/74/12 26/26/12
